# Blender v2.76 (sub 0) OBJ File: ''
# www.blender.org
mtllib Lovely Tree.mtl
o polygon2.038
v 0.600098 0.000000 -0.330078
v 0.493164 1.005371 -0.236816
v 0.419922 -0.000000 0.100098
v 0.255371 0.959961 -0.066894
v 0.000000 -0.000000 0.270020
v 0.029297 0.919434 -0.027344
v -0.419922 -0.000000 0.100098
v -0.401855 6.229980 -0.254882
v 0.362793 4.505371 -0.250976
v -0.179199 6.130371 0.088380
v 0.520996 4.418457 0.091798
v 0.006836 6.150391 0.088380
v 0.707031 4.438477 0.091798
v -0.674316 2.186523 -0.229980
v -0.417969 1.870117 -0.229980
v -0.313477 2.199219 0.112793
v -0.159180 1.758301 0.112793
v 0.051758 3.078613 0.112793
v 0.194824 3.001953 0.112793
v 0.362793 4.505371 -0.250976
v -0.112305 3.229980 -0.229980
v 0.520996 4.418457 0.091798
v 0.051758 3.078613 0.112793
v 0.707031 4.438477 0.091798
v 0.194824 3.001953 0.112793
v -1.773438 3.041504 -0.229980
v -0.674316 2.186523 -0.229980
v -1.496094 3.270020 0.112794
v -0.313477 2.199219 0.112793
v -1.499023 3.507324 -0.229980
v -0.281738 2.827148 -0.229980
v 2.092773 3.765137 -0.029785
v 0.744141 2.556152 0.094239
v 2.263184 3.681152 0.049805
v 1.024902 2.456055 0.049805
v 2.504883 3.561523 -0.220214
v 1.298828 2.312500 -0.220214
v -0.179199 6.130371 0.088380
v 0.006836 6.150391 0.088380
v -0.401855 6.229980 -0.254882
v 0.707031 4.438477 0.091798
v 0.362793 4.505371 -0.250976
v 0.029297 0.919434 -0.027344
v 0.625977 1.776855 0.049805
v 0.143555 1.408203 0.042969
v 1.024902 2.456055 0.049805
v 0.744141 2.556152 0.094239
v 0.493164 1.005371 -0.236816
v 0.950684 1.833008 -0.220215
v 0.625977 1.776855 0.049805
v 1.298828 2.312500 -0.220214
v 1.024902 2.456055 0.049805
v -0.600098 0.000000 -0.330078
v -0.419922 -0.000000 0.100098
v -0.276367 1.055664 -0.356445
v 0.029297 0.919434 -0.027344
v -0.276367 1.055664 -0.356445
v 0.029297 0.919434 -0.027344
v -0.417969 1.870117 -0.229980
v -0.159180 1.758301 0.112793
v 0.076660 1.889648 0.042969
v -0.159180 1.758301 0.112793
v 0.143555 1.408203 0.042969
v 0.029297 0.919434 -0.027344
v -0.112305 3.229980 -0.229980
v -0.281738 2.827148 -0.229980
v 0.051758 3.078613 0.112793
v -0.313477 2.199219 0.112793
v 0.493164 1.005371 -0.236816
v 0.625977 1.776855 0.049805
v 0.255371 0.959961 -0.066894
v 0.029297 0.919434 -0.027344
v -1.773438 3.041504 -0.229980
v -1.496094 3.270020 0.112794
v -1.499023 3.507324 -0.229980
v -0.159180 1.758301 0.112793
v 0.076660 1.889648 0.042969
v 0.194824 3.001953 0.112793
vt 0.976562 -0.966797
vt 0.708984 -0.755859
vt 0.738281 -0.978516
vt 0.601562 -0.755859
vt 0.503906 -0.982422
vt 0.494141 -0.757812
vt 0.269531 -0.978516
vt 0.494141 -0.306641
vt 0.496094 -0.007812
vt 0.388672 -0.263672
vt 0.388672 -0.007812
vt 0.277344 -0.271484
vt 0.277344 -0.007812
vt 0.201172 -0.277344
vt 0.277344 -0.533203
vt 0.275391 -0.271484
vt 0.388672 -0.533203
vt 0.386719 -0.265625
vt 0.496094 -0.306641
vt 0.386719 -0.007812
vt 0.275391 -0.007812
vt 0.144531 -0.009766
vt 0.201172 -0.279297
vt 0.708984 -0.009766
vt 0.710938 -0.330078
vt 0.496094 -0.533203
vt 0.710938 -0.533203
vt 0.027344 -0.968750
vt 0.273438 -0.755859
vt 0.271484 -0.755859
vt 0.275391 -0.531250
vt 0.386719 -0.535156
vt 0.498047 -0.535156
vt 0.496094 -0.603516
vn 0.920700 0.062500 0.385200
vn 0.711000 -0.117200 0.693400
vn 0.644800 0.181700 0.742500
vn 0.385000 0.033200 0.922300
vn 0.041000 0.287100 0.957000
vn -0.295000 -0.009800 0.955400
vn -0.642700 0.337900 0.687600
vn 0.314300 0.843500 -0.435500
vn -0.893100 -0.144600 0.426000
vn -0.652300 0.078100 0.753900
vn -0.505700 0.054700 0.861000
vn 0.261800 0.574400 0.775600
vn 0.002000 0.009800 0.999900
vn -0.523800 -0.547300 0.652800
vn -0.749900 -0.318300 0.580000
vn -0.378700 0.015600 0.925400
vn -0.160200 -0.127000 0.978900
vn -0.388400 0.160000 0.907500
vn 0.113400 -0.027400 0.993200
vn -0.808000 0.312300 0.499600
vn 0.001900 0.009800 1.000000
vn -0.761600 -0.044900 0.646400
vn -0.523800 -0.547200 0.652800
vn -0.491900 -0.003900 0.870600
vn 0.017600 0.695200 0.718600
vn -0.513700 0.433600 0.740300
vn -0.242000 0.363000 0.899800
vn -0.003900 0.048900 0.998800
vn 0.146400 -0.101500 0.984000
vn 0.312700 -0.269700 0.910800
vn 0.498400 -0.492600 0.713400
vn 0.558500 -0.417900 0.716600
vn 0.314400 0.843600 -0.435400
vn 0.675400 0.287000 -0.679300
vn 0.701200 0.308700 -0.642700
vn 0.408000 -0.287000 0.866700
vn 0.105400 -0.076100 0.991500
vn 0.625200 -0.406400 0.666300
vn 0.408000 -0.286900 0.866700
vn -0.884900 0.281400 0.371200
vn -0.787600 0.156300 0.596100
vn -0.295100 -0.009800 0.955400
vn 0.299000 -0.029300 0.953800
vn -0.388400 0.160100 0.907500
vn -0.378800 0.015600 0.925400
vn -0.295000 -0.009700 0.955400
usemtl i5010401_01
s 1
f 1/1/1 2/2/2 3/3/3
f 2/2/2 4/4/4 3/3/3
f 3/3/3 4/4/4 5/5/5
f 4/4/4 6/6/6 5/5/5
f 5/5/5 6/6/6 7/7/7
f 8/8/8 9/9/9 10/10/10
f 9/9/9 11/11/11 10/10/10
f 10/10/10 11/11/11 12/12/12
f 11/11/11 13/13/13 12/12/12
f 14/14/14 15/15/15 16/16/16
f 15/15/15 17/17/17 16/16/16
f 16/16/16 17/17/17 18/18/18
f 17/17/17 19/19/19 18/18/18
f 20/9/9 21/19/20 22/20/11
f 21/19/20 23/18/18 22/20/11
f 22/20/11 23/18/18 24/21/21
f 23/18/18 25/16/19 24/21/21
f 26/22/22 27/23/23 28/21/24
f 27/23/23 29/16/16 28/21/24
f 28/21/24 29/16/16 30/21/25
f 29/16/16 31/23/26 30/21/25
f 32/20/27 33/18/28 34/9/29
f 33/18/28 35/19/30 34/9/29
f 34/9/29 35/19/30 36/24/31
f 35/19/30 37/25/32 36/24/31
f 38/17/10 39/17/12 40/15/33
f 39/17/12 41/20/34 40/15/33
f 40/15/33 41/20/34 42/21/35
f 43/6/6 44/26/36 45/17/37
f 44/26/36 46/19/30 45/17/37
f 45/17/37 46/19/30 47/18/28
f 48/2/2 49/27/38 50/26/39
f 49/27/38 51/25/32 50/26/39
f 50/26/39 51/25/32 52/19/30
f 53/28/40 54/7/7 55/29/41
f 54/7/7 56/6/42 55/29/41
f 57/30/41 58/6/6 59/31/15
f 58/6/6 60/32/17 59/31/15
f 61/33/43 62/32/17 63/34/37
f 62/32/17 64/6/6 63/34/37
f 65/21/20 66/23/26 67/20/44
f 66/23/26 68/16/45 67/20/44
f 69/2/2 70/26/39 71/4/4
f 70/26/39 72/6/46 71/4/4
f 73/15/22 74/17/24 75/15/25
f 76/17/17 77/26/43 78/19/19
o polygon0.059
v 4.079590 0.149902 2.187012
v 4.079590 0.149903 -2.187012
v -4.079590 0.149902 2.187012
v -4.079590 0.149903 -2.187012
vt 0.000000 -1.000000
vt 1.000000 -1.000000
vt 0.000000 0.000000
vt 1.000000 0.000000
vn 0.000000 1.000000 0.000000
usemtl i5010401_03
s 1
f 79/35/47 80/36/47 81/37/47
f 80/36/47 82/38/47 81/37/47
o polygon1.059
v 1.955566 6.823730 1.148439
v 0.544922 7.415527 -0.942870
v -0.219727 6.247069 2.428712
v -1.570313 6.481934 0.229493
v -1.453125 2.566406 2.322267
v 0.451172 3.614258 0.193848
v -3.132813 3.175781 1.089844
v -1.789063 4.690430 -1.111815
v -1.612305 3.444824 1.992677
v -0.249023 4.369629 -0.066406
v -3.814453 3.826172 0.715333
v -2.441406 4.322266 -1.438964
v 2.709473 2.326660 1.947266
v 4.005859 3.572754 0.074708
v 0.469727 3.123047 0.906251
v 1.766113 3.947754 -1.167968
v -1.103027 3.625488 2.268555
v 0.059570 4.807617 0.371583
v -3.200195 4.245117 1.286622
v -2.342285 5.284180 -0.752929
v 0.088379 4.134766 0.195313
v 0.574707 3.095702 2.520997
v 2.585938 4.210938 -0.329101
v 3.100586 3.038574 1.939453
v -0.373047 5.212402 -0.815429
v -1.775879 4.203613 1.115724
v 1.793945 4.539551 0.437989
v 0.378418 3.217285 2.159180
v 0.562012 6.141602 -0.108886
v -1.582520 7.028320 -1.252440
v -0.810547 5.550780 2.007814
v -3.002930 6.094238 0.720704
v 0.295410 6.657227 -1.229491
v -0.467285 6.285156 1.219728
v 2.764160 6.676270 -0.457518
v 2.011719 5.932128 1.916017
v -0.606934 8.215332 -0.895995
v -1.064453 7.548340 1.182130
v 1.757324 7.862793 -1.220214
v 1.445313 6.909668 0.752931
v -1.467285 7.632325 -1.771483
v -2.706543 6.660156 0.287599
v 0.468262 7.556152 -0.303221
v -0.485840 6.727050 1.631837
v 0.597168 5.212402 -0.607421
v 0.968750 4.383300 1.813966
v 3.142090 5.041016 -1.045897
v 3.447266 3.868652 1.242189
v 0.375000 7.671387 1.631837
v 1.194824 8.500488 -0.303221
v -1.845703 7.604492 0.287599
v -0.606934 8.576660 -1.771483
v -0.609863 5.665527 0.724610
v 1.582520 5.122559 2.011231
v 0.810059 6.599609 -1.248534
v 2.955078 5.713379 -0.105468
v -0.224609 5.605469 2.576173
v 1.189941 6.443359 1.026856
v -1.956543 5.842773 0.655763
v -0.093750 6.784668 -0.881347
v -1.563965 4.736328 2.576173
v -0.149414 5.574219 1.026856
v -3.295898 4.973633 0.655763
v -1.433105 5.916016 -0.881347
vt 0.987305 -0.012695
vt 0.012695 -0.012695
vt 0.987305 -0.987305
vt 0.012695 -0.987305
vn -0.066400 0.947600 0.312600
vn -0.165800 0.942900 0.288900
vn -0.165900 0.942900 0.288900
vn -0.263800 0.928300 0.261900
vn 0.000100 0.897100 0.441800
vn 0.023500 0.856200 0.516100
vn 0.046800 0.808800 0.586200
vn -0.058700 0.924200 0.377300
vn -0.088000 0.960000 0.265900
vn -0.117100 0.981400 0.152200
vn 0.029300 0.822300 0.568400
vn -0.003900 0.886500 0.462800
vn -0.003900 0.886400 0.462800
vn -0.037100 0.936100 0.349900
vn 0.002200 0.848100 0.529800
vn -0.013700 0.872700 0.488100
vn -0.029300 0.896000 0.443100
vn 0.054700 0.915600 0.398200
vn 0.087800 0.905000 0.416300
vn 0.088000 0.904800 0.416600
vn 0.121100 0.892900 0.433700
vn 0.005800 0.884400 0.466600
vn 0.027400 0.833200 0.552200
vn 0.046800 0.773100 0.632500
vn 0.179500 0.911200 0.370700
vn 0.080100 0.914500 0.396600
vn -0.019800 0.909000 0.416300
vn -0.048700 0.989700 0.134700
vn -0.002000 0.974500 0.224500
vn 0.046900 0.948800 0.312400
vn 0.183500 0.923200 0.337700
vn 0.238300 0.886600 0.396500
vn 0.238300 0.886600 0.396400
vn 0.291300 0.842400 0.453400
vn -0.202900 0.926800 0.316100
vn -0.204800 0.929500 0.306600
vn -0.205100 0.929500 0.306600
vn -0.207100 0.932100 0.297000
vn 0.117100 0.944700 0.306400
vn 0.197400 0.912100 0.359400
vn 0.275500 0.869400 0.410300
vn -0.212800 0.927700 0.306600
vn -0.212800 0.927200 0.308400
vn -0.212900 0.927100 0.308300
vn 0.179400 0.911300 0.370700
vn -0.212900 0.927700 0.306600
vn -0.212900 0.927200 0.308300
vn -0.213200 0.926800 0.309000
vn -0.212900 0.927100 0.308400
vn -0.212700 0.927200 0.308400
vn -0.213100 0.926900 0.308900
usemtl i5010401_02
s 1
f 83/39/48 84/40/49 85/41/50
f 84/40/49 86/42/51 85/41/50
f 87/42/52 88/41/53 89/40/53
f 88/41/53 90/39/54 89/40/53
f 91/42/55 92/41/56 93/40/56
f 92/41/56 94/39/57 93/40/56
f 95/42/58 96/41/59 97/40/60
f 96/41/59 98/39/61 97/40/60
f 99/42/62 100/41/63 101/40/63
f 100/41/63 102/39/64 101/40/63
f 103/42/65 104/41/66 105/40/67
f 104/41/66 106/39/68 105/40/67
f 107/42/69 108/41/70 109/40/70
f 108/41/70 110/39/71 109/40/70
f 111/39/72 112/40/73 113/41/73
f 112/40/73 114/42/74 113/41/73
f 115/42/75 116/41/76 117/40/76
f 116/41/76 118/39/77 117/40/76
f 119/42/78 120/41/79 121/40/80
f 120/41/79 122/39/81 121/40/80
f 123/42/82 124/41/83 125/40/84
f 124/41/83 126/39/85 125/40/84
f 127/42/86 128/41/87 129/40/87
f 128/41/87 130/39/88 129/40/87
f 131/39/89 132/40/90 133/41/91
f 132/40/90 134/42/90 133/41/91
f 135/42/74 136/41/73 137/40/73
f 136/41/73 138/39/92 137/40/73
f 139/39/93 140/40/94 141/41/94
f 140/40/94 142/42/95 141/41/94
f 143/39/89 144/40/96 145/41/97
f 144/40/96 146/42/98 145/41/97
